<?xml version="1.0" encoding="utf-8"?>
<svg version="1.1" xmlns:xlink="http://www.w3.org/1999/xlink" width="21px" height="21px" xmlns="http://www.w3.org/2000/svg">
  <g transform="matrix(1 0 0 1 -564 -276 )">
    <path d="M 574.5 276  C 580.38 276  585 280.62  585 286.5  C 585 292.38  580.38 297  574.5 297  C 568.62 297  564 292.38  564 286.5  C 564 280.62  568.62 276  574.5 276  Z " fill-rule="nonzero" fill="#ffffff" stroke="none" />
    <path d="M 574.5 276.5  C 580.1 276.5  584.5 280.9  584.5 286.5  C 584.5 292.1  580.1 296.5  574.5 296.5  C 568.9 296.5  564.5 292.1  564.5 286.5  C 564.5 280.9  568.9 276.5  574.5 276.5  Z " stroke-width="1" stroke="#797979" fill="none" />
  </g>
</svg>