<?xml version="1.0" encoding="utf-8"?>
<svg version="1.1" xmlns:xlink="http://www.w3.org/1999/xlink" width="60px" height="30px" xmlns="http://www.w3.org/2000/svg">
  <g transform="matrix(1 0 0 1 -527 -111 )">
    <path d="M 528 114  A 2 2 0 0 1 530 112 L 584 112  A 2 2 0 0 1 586 114 L 586 138  A 2 2 0 0 1 584 140 L 530 140  A 2 2 0 0 1 528 138 L 528 114  Z " fill-rule="nonzero" fill="#aaaaaa" stroke="none" />
    <path d="M 527.5 114  A 2.5 2.5 0 0 1 530 111.5 L 584 111.5  A 2.5 2.5 0 0 1 586.5 114 L 586.5 138  A 2.5 2.5 0 0 1 584 140.5 L 530 140.5  A 2.5 2.5 0 0 1 527.5 138 L 527.5 114  Z " stroke-width="1" stroke="#000000" fill="none" stroke-opacity="0.0980392156862745" />
  </g>
</svg>