<?xml version="1.0" encoding="utf-8"?>
<svg version="1.1" xmlns:xlink="http://www.w3.org/1999/xlink" width="29px" height="30px" xmlns="http://www.w3.org/2000/svg">
  <defs>
    <mask fill="white" id="clip31">
      <path d="M 28.5 468  C 20.4525 468  14 461.5475  14 453.5  L 14 452.5  C 14 444.4525  20.4525 438  28.5 438  L 28.5 438  C 36.5475 438  43 444.4525  43 452.5  L 43 453.5  C 43 461.5475  36.5475 468  28.5 468  " fill-rule="evenodd" />
    </mask>
  </defs>
  <g transform="matrix(1 0 0 1 -14 -438 )">
    <path d="M 14 438  L 43 438  L 43 468  L 14 468  L 14 438  " fill-rule="nonzero" fill="#cccccc" stroke="none" mask="url(#clip31)" />
    <path d="M 16 440  L 41 440  L 41 466  L 16 466  L 16 440  " fill-rule="nonzero" fill="#ffffff" stroke="none" mask="url(#clip31)" />
    <path d="M 31.255 446.85  C 30.037 446.85  29.08 445.893  29.08 444.675  C 29.08 443.457  30.037 442.5  31.255 442.5  C 32.473 442.5  33.43 443.457  33.43 444.675  C 33.43 445.893  32.473 446.85  31.255 446.85  " fill-rule="nonzero" fill="#cccccc" stroke="none" mask="url(#clip31)" />
    <path d="M 17 466  L 17 452.25  L 23 446  L 31.4 451  L 36.2 449.75  L 41 451  L 41 466  L 17 466  " fill-rule="nonzero" fill="#169bd5" stroke="none" mask="url(#clip31)" />
  </g>
</svg>