<?xml version="1.0" encoding="utf-8"?>
<svg version="1.1" xmlns:xlink="http://www.w3.org/1999/xlink" width="20px" height="17px" xmlns="http://www.w3.org/2000/svg">
  <g transform="matrix(1 0 0 1 -331 -294 )">
    <path d="M 2.64508928571429 13.9563802083333  C 2.78645833333333 13.8161892361111  2.85714285714286 13.6501736111111  2.85714285714286 13.4583333333333  C 2.85714285714286 13.2664930555556  2.78645833333333 13.1004774305556  2.64508928571429 12.9602864583333  C 2.50372023809524 12.8200954861111  2.33630952380952 12.75  2.14285714285714 12.75  C 1.94940476190476 12.75  1.78199404761905 12.8200954861111  1.640625 12.9602864583333  C 1.49925595238095 13.1004774305556  1.42857142857143 13.2664930555556  1.42857142857143 13.4583333333333  C 1.42857142857143 13.6501736111111  1.49925595238095 13.8161892361111  1.640625 13.9563802083333  C 1.78199404761905 14.0965711805556  1.94940476190476 14.1666666666667  2.14285714285714 14.1666666666667  C 2.33630952380952 14.1666666666667  2.50372023809524 14.0965711805556  2.64508928571429 13.9563802083333  Z M 18.1473214285714 8.07942708333333  C 18.4300595238095 7.79904513888889  18.5714285714286 7.46701388888889  18.5714285714286 7.08333333333333  C 18.5714285714286 6.70703125  18.4263392857143 6.37684461805555  18.1361607142857 6.0927734375  C 17.8459821428571 5.80870225694444  17.514880952381 5.66666666666667  17.1428571428571 5.66666666666667  L 10.7142857142857 5.66666666666667  C 10.7142857142857 5.51909722222222  10.7700892857143 5.34016927083333  10.8816964285714 5.1298828125  C 10.9933035714286 4.91959635416667  11.1160714285714 4.71668836805555  11.25 4.52115885416667  C 11.3839285714286 4.32562934027778  11.5066964285714 4.07476128472222  11.6183035714286 3.7685546875  C 11.7299107142857 3.46234809027778  11.7857142857143 3.15060763888889  11.7857142857143 2.83333333333333  C 11.7857142857143 2.33897569444444  11.6201636904762 1.97927517361111  11.2890625 1.75423177083333  C 10.9579613095238 1.52918836805555  10.5282738095238 1.41666666666667  10 1.41666666666667  C 9.82142857142857 1.41666666666667  9.48660714285714 1.92947048611111  8.99553571428571 2.955078125  C 8.81696428571429 3.27973090277778  8.67931547619048 3.51953125  8.58258928571429 3.67447916666667  C 8.28497023809524 4.14670138888889  7.86830357142857 4.681640625  7.33258928571429 5.279296875  C 6.80431547619048 5.876953125  6.42857142857143 6.26801215277778  6.20535714285714 6.45247395833333  C 5.69196428571429 6.873046875  5.17113095238095 7.08333333333333  4.64285714285714 7.08333333333333  L 4.28571428571429 7.08333333333333  L 4.28571428571429 14.1666666666667  L 4.64285714285714 14.1666666666667  C 5.17857142857143 14.1666666666667  5.79985119047619 14.2847222222222  6.50669642857143 14.5208333333333  C 7.21354166666667 14.7569444444444  7.93340773809524 14.9930555555556  8.66629464285714 15.2291666666667  C 9.39918154761905 15.4652777777778  10.0669642857143 15.5833333333333  10.6696428571429 15.5833333333333  C 12.0758928571429 15.5833333333333  12.7790178571429 14.9672309027778  12.7790178571429 13.7350260416667  C 12.7790178571429 13.5431857638889  12.7604166666667 13.3365885416667  12.7232142857143 13.115234375  C 12.9464285714286 12.9971788194444  13.1231398809524 12.8034939236111  13.2533482142857 12.5341796875  C 13.383556547619 12.2648654513889  13.4486607142857 11.9937065972222  13.4486607142857 11.720703125  C 13.4486607142857 11.4476996527778  13.3816964285714 11.1931423611111  13.2477678571429 10.95703125  C 13.6421130952381 10.5881076388889  13.8392857142857 10.1490885416667  13.8392857142857 9.63997395833333  C 13.8392857142857 9.45551215277778  13.8020833333333 9.25075954861111  13.7276785714286 9.02571614583333  C 13.6532738095238 8.80067274305556  13.5602678571429 8.62543402777778  13.4486607142857 8.5  L 17.1428571428571 8.5  C 17.5297619047619 8.5  17.8645833333333 8.35980902777778  18.1473214285714 8.07942708333333  Z M 19.1517857142857 5.09114583333333  C 19.7172619047619 5.65190972222222  20 6.31228298611111  20 7.072265625  C 20 7.84700520833333  19.7191220238095 8.51475694444444  19.1573660714286 9.07552083333333  C 18.5956101190476 9.63628472222222  17.9241071428571 9.91666666666667  17.1428571428571 9.91666666666667  L 15.2566964285714 9.91666666666667  C 15.2269345238095 10.3741319444444  15.0892857142857 10.8131510416667  14.84375 11.2337239583333  C 14.8660714285714 11.388671875  14.8772321428571 11.5473090277778  14.8772321428571 11.7096354166667  C 14.8772321428571 12.4548611111111  14.6540178571429 13.1115451388889  14.2075892857143 13.6796875  C 14.2150297619048 14.7052951388889  13.8988095238095 15.5150824652778  13.2589285714286 16.1090494791667  C 12.6190476190476 16.7030164930556  11.7745535714286 17  10.7254464285714 17  C 9.7358630952381 17  8.53794642857143 16.7454427083333  7.13169642857143 16.236328125  C 5.91145833333333 15.8009982638889  5.08184523809524 15.5833333333333  4.64285714285714 15.5833333333333  L 1.42857142857143 15.5833333333333  C 1.03422619047619 15.5833333333333  0.697544642857143 15.4449869791667  0.418526785714286 15.1682942708333  C 0.139508928571429 14.8916015625  0 14.5577256944444  0 14.1666666666667  L 0 7.08333333333333  C 0 6.69227430555556  0.139508928571429 6.3583984375  0.418526785714286 6.08170572916667  C 0.697544642857143 5.80501302083333  1.03422619047619 5.66666666666667  1.42857142857143 5.66666666666667  L 4.64285714285714 5.66666666666667  C 4.71726190476191 5.66666666666667  4.79724702380952 5.65006510416667  4.8828125 5.61686197916667  C 4.96837797619048 5.58365885416667  5.05580357142857 5.53200954861111  5.14508928571429 5.4619140625  C 5.234375 5.39181857638889  5.31808035714286 5.32541232638889  5.39620535714286 5.2626953125  C 5.47433035714286 5.19997829861111  5.56361607142857 5.11697048611111  5.6640625 5.013671875  C 5.76450892857143 4.91037326388889  5.84077380952381 4.8310546875  5.89285714285714 4.77571614583333  C 5.94494047619048 4.72037760416667  6.015625 4.64105902777778  6.10491071428571 4.53776041666667  C 6.19419642857143 4.43446180555555  6.24627976190476 4.37174479166667  6.26116071428571 4.349609375  C 6.74479166666667 3.80360243055555  7.11681547619048 3.32769097222222  7.37723214285714 2.921875  C 7.47395833333333 2.76692708333333  7.59672619047619 2.53819444444444  7.74553571428571 2.23567708333333  C 7.89434523809524 1.93315972222222  8.03199404761905 1.66753472222222  8.15848214285714 1.43880208333333  C 8.28497023809524 1.21006944444444  8.43563988095238 0.977647569444443  8.61049107142857 0.741536458333333  C 8.78534226190476 0.505425347222221  8.98995535714286 0.322808159722221  9.22433035714286 0.193684895833333  C 9.45870535714286 0.064561631944443  9.71726190476191 0  10 0  C 10.9300595238095 0  11.6982886904762 0.247178819444443  12.3046875 0.741536458333333  C 12.9110863095238 1.23589409722222  13.2142857142857 1.93315972222222  13.2142857142857 2.83333333333333  C 13.2142857142857 3.33506944444444  13.1324404761905 3.80729166666667  12.96875 4.25  L 17.1428571428571 4.25  C 17.9166666666667 4.25  18.5863095238095 4.53038194444444  19.1517857142857 5.09114583333333  Z " fill-rule="nonzero" fill="#000000" stroke="none" transform="matrix(1 0 0 1 331 294 )" />
  </g>
</svg>