<?xml version="1.0" encoding="utf-8"?>
<svg version="1.1" xmlns:xlink="http://www.w3.org/1999/xlink" width="80px" height="80px" xmlns="http://www.w3.org/2000/svg">
  <defs>
    <mask fill="white" id="clip29">
      <path d="M 279 238  C 256.8 238  239 220.2  239 198  L 239 198  C 239 175.8  256.8 158  279 158  L 279 158  C 301.2 158  319 175.8  319 198  L 319 198  C 319 220.2  301.2 238  279 238  " fill-rule="evenodd" />
    </mask>
  </defs>
  <g transform="matrix(1 0 0 1 -239 -158 )">
    <path d="M 239 158  L 319 158  L 319 238  L 239 238  L 239 158  " fill-rule="nonzero" fill="#cccccc" stroke="none" mask="url(#clip29)" />
    <path d="M 245 164  L 313 164  L 313 232  L 245 232  L 245 164  " fill-rule="nonzero" fill="#ffffff" stroke="none" mask="url(#clip29)" />
    <path d="M 286.6 182  C 283.24 182  280.6 179.36  280.6 176  C 280.6 172.64  283.24 170  286.6 170  C 289.96 170  292.6 172.64  292.6 176  C 292.6 179.36  289.96 182  286.6 182  " fill-rule="nonzero" fill="#cccccc" stroke="none" mask="url(#clip29)" />
    <path d="M 247 230  L 247 194.8  L 263 178.8  L 285.4 191.6  L 298.2 188.4  L 311 191.6  L 311 230  L 247 230  " fill-rule="nonzero" fill="#169bd5" stroke="none" mask="url(#clip29)" />
  </g>
</svg>