<?xml version="1.0" encoding="utf-8"?>
<svg version="1.1" xmlns:xlink="http://www.w3.org/1999/xlink" width="35px" height="35px" xmlns="http://www.w3.org/2000/svg">
  <defs>
    <filter x="540px" y="230px" width="35px" height="35px" filterUnits="userSpaceOnUse" id="filter26">
      <feOffset dx="0" dy="2" in="SourceAlpha" result="shadowOffsetInner" />
      <feGaussianBlur stdDeviation="2" in="shadowOffsetInner" result="shadowGaussian" />
      <feComposite in2="shadowGaussian" operator="atop" in="SourceAlpha" result="shadowComposite" />
      <feColorMatrix type="matrix" values="0 0 0 0 0  0 0 0 0 0  0 0 0 0 0  0 0 0 0.349019607843137 0  " in="shadowComposite" />
    </filter>
    <g id="widget27">
      <path d="M 557.5 232  C 565.06 232  571 237.94  571 245.5  C 571 253.06  565.06 259  557.5 259  C 549.94 259  544 253.06  544 245.5  C 544 237.94  549.94 232  557.5 232  Z " fill-rule="nonzero" fill="#ffffff" stroke="none" />
      <path d="M 557.5 232.5  C 564.78 232.5  570.5 238.22  570.5 245.5  C 570.5 252.78  564.78 258.5  557.5 258.5  C 550.22 258.5  544.5 252.78  544.5 245.5  C 544.5 238.22  550.22 232.5  557.5 232.5  Z " stroke-width="1" stroke="#f2f2f2" fill="none" />
    </g>
  </defs>
  <g transform="matrix(1 0 0 1 -540 -230 )">
    <use xlink:href="#widget27" filter="url(#filter26)" />
    <use xlink:href="#widget27" />
  </g>
</svg>