<?xml version="1.0" encoding="utf-8"?>
<svg version="1.1" xmlns:xlink="http://www.w3.org/1999/xlink" width="300px" height="170px" xmlns="http://www.w3.org/2000/svg">
  <g transform="matrix(1 0 0 1 -267 -223 )">
    <path d="M 267 223  L 567 223  L 567 393  L 267 393  L 267 223  " fill-rule="nonzero" fill="#cccccc" stroke="none" />
    <path d="M 279 235  L 555 235  L 555 381  L 279 381  L 279 235  " fill-rule="nonzero" fill="#ffffff" stroke="none" />
    <path d="M 435.75 274  C 428.61 274  423 268.39  423 261.25  C 423 254.11  428.61 248.5  435.75 248.5  C 442.89 248.5  448.5 254.11  448.5 261.25  C 448.5 268.39  442.89 274  435.75 274  " fill-rule="nonzero" fill="#cccccc" stroke="none" />
    <path d="M 284 377  L 284 301.65  L 350.75 267.4  L 444.2 330.42  L 497.6 287.95  L 551 330.42  L 551 377  L 284 377  " fill-rule="nonzero" fill="#169bd5" stroke="none" />
  </g>
</svg>