<?xml version="1.0" encoding="utf-8"?>
<svg version="1.1" xmlns:xlink="http://www.w3.org/1999/xlink" width="10px" height="10px" xmlns="http://www.w3.org/2000/svg">
  <g transform="matrix(1 0 0 1 -140 -197 )">
    <path d="M 145 197  C 147.8 197  150 199.2  150 202  C 150 204.8  147.8 207  145 207  C 142.2 207  140 204.8  140 202  C 140 199.2  142.2 197  145 197  Z " fill-rule="nonzero" fill="#7f7f7f" stroke="none" />
    <path d="M 145 197.5  C 147.52 197.5  149.5 199.48  149.5 202  C 149.5 204.52  147.52 206.5  145 206.5  C 142.48 206.5  140.5 204.52  140.5 202  C 140.5 199.48  142.48 197.5  145 197.5  Z " stroke-width="1" stroke="#797979" fill="none" />
  </g>
</svg>