<?xml version="1.0" encoding="utf-8"?>
<svg version="1.1" xmlns:xlink="http://www.w3.org/1999/xlink" width="10px" height="10px" xmlns="http://www.w3.org/2000/svg">
  <g transform="matrix(1 0 0 1 -169 -197 )">
    <path d="M 174 197  C 176.8 197  179 199.2  179 202  C 179 204.8  176.8 207  174 207  C 171.2 207  169 204.8  169 202  C 169 199.2  171.2 197  174 197  Z " fill-rule="nonzero" fill="#ffffff" stroke="none" />
    <path d="M 174 197.5  C 176.52 197.5  178.5 199.48  178.5 202  C 178.5 204.52  176.52 206.5  174 206.5  C 171.48 206.5  169.5 204.52  169.5 202  C 169.5 199.48  171.48 197.5  174 197.5  Z " stroke-width="1" stroke="#797979" fill="none" />
  </g>
</svg>