<?xml version="1.0" encoding="utf-8"?>
<svg version="1.1" xmlns:xlink="http://www.w3.org/1999/xlink" width="20px" height="15px" xmlns="http://www.w3.org/2000/svg">
  <g transform="matrix(1 0 0 1 -222 -304 )">
    <path d="M 13.2604166666667 14.3098958333333  C 13.3090277777778 14.3967013888889  13.3333333333333 14.4878472222222  13.3333333333333 14.5833333333333  C 13.3333333333333 14.6961805555556  13.3003472222222 14.7938368055556  13.234375 14.8763020833333  C 13.1684027777778 14.9587673611111  13.0902777777778 15  13 15  L 3 15  C 2.94444444444444 15  2.89756944444444 14.9913194444444  2.859375 14.9739583333333  C 2.82118055555556 14.9565972222222  2.78993055555556 14.9262152777778  2.765625 14.8828125  C 2.74131944444444 14.8394097222222  2.72222222222222 14.8046875  2.70833333333333 14.7786458333333  C 2.69444444444444 14.7526041666667  2.68402777777778 14.7026909722222  2.67708333333333 14.62890625  C 2.67013888888889 14.5551215277778  2.66666666666667 14.5052083333333  2.66666666666667 14.4791666666667  L 2.66666666666667 14.3098958333333  L 2.66666666666667 14.1666666666667  L 2.66666666666667 12.0833333333333  L 2.66666666666667 6.66666666666667  L 0.666666666666667 6.66666666666667  C 0.486111111111111 6.66666666666667  0.329861111111111 6.58420138888889  0.197916666666667 6.41927083333333  C 0.0659722222222222 6.25434027777778  0 6.05902777777778  0 5.83333333333333  C 0 5.625  0.0520833333333333 5.44704861111111  0.15625 5.29947916666667  L 3.48958333333333 0.299479166666667  C 3.62152777777778 0.108506944444444  3.79166666666667 0.0130208333333337  4 0.0130208333333337  C 4.20833333333333 0.0130208333333337  4.37847222222222 0.108506944444444  4.51041666666667 0.299479166666667  L 7.84375 5.29947916666667  C 7.94791666666667 5.44704861111111  8 5.625  8 5.83333333333333  C 8 6.05902777777778  7.93402777777778 6.25434027777778  7.80208333333333 6.41927083333333  C 7.67013888888889 6.58420138888889  7.51388888888889 6.66666666666667  7.33333333333333 6.66666666666667  L 5.33333333333333 6.66666666666667  L 5.33333333333333 11.6666666666667  L 11.3333333333333 11.6666666666667  C 11.4444444444444 11.6666666666667  11.53125 11.7144097222222  11.59375 11.8098958333333  L 13.2604166666667 14.3098958333333  Z M 19.8020833333333 8.58072916666667  C 19.9340277777778 8.74565972222222  20 8.94097222222222  20 9.16666666666667  C 20 9.375  19.9479166666667 9.55295138888889  19.84375 9.70052083333333  L 16.5104166666667 14.7005208333333  C 16.3715277777778 14.9001736111111  16.2013888888889 15  16 15  C 15.7986111111111 15  15.6284722222222 14.9001736111111  15.4895833333333 14.7005208333333  L 12.15625 9.70052083333333  C 12.0520833333333 9.55295138888889  12 9.375  12 9.16666666666667  C 12 8.94097222222222  12.0659722222222 8.74565972222222  12.1979166666667 8.58072916666667  C 12.3298611111111 8.41579861111111  12.4861111111111 8.33333333333333  12.6666666666667 8.33333333333333  L 14.6666666666667 8.33333333333333  L 14.6666666666667 3.33333333333333  L 8.66666666666667 3.33333333333333  C 8.55555555555556 3.33333333333333  8.46875 3.28125  8.40625 3.17708333333333  L 6.73958333333333 0.677083333333333  C 6.69097222222222 0.598958333333334  6.66666666666667 0.512152777777777  6.66666666666667 0.416666666666667  C 6.66666666666667 0.303819444444443  6.69965277777778 0.206163194444444  6.765625 0.123697916666667  C 6.83159722222222 0.0412326388888867  6.90972222222222 0  7 0  L 17 0  C 17.0555555555556 0  17.1024305555556 0.00868055555555414  17.140625 0.0260416666666674  C 17.1788194444444 0.0434027777777773  17.2100694444444 0.073784722222221  17.234375 0.1171875  C 17.2586805555556 0.160590277777777  17.2777777777778 0.195312500000001  17.2916666666667 0.221354166666666  C 17.3055555555556 0.247395833333334  17.3159722222222 0.297309027777776  17.3229166666667 0.371093750000001  C 17.3298611111111 0.44487847222222  17.3333333333333 0.494791666666667  17.3333333333333 0.520833333333333  L 17.3333333333333 0.690104166666666  L 17.3333333333333 0.833333333333334  L 17.3333333333333 2.91666666666667  L 17.3333333333333 8.33333333333333  L 19.3333333333333 8.33333333333333  C 19.5138888888889 8.33333333333333  19.6701388888889 8.41579861111111  19.8020833333333 8.58072916666667  Z " fill-rule="nonzero" fill="#555555" stroke="none" transform="matrix(1 0 0 1 222 304 )" />
  </g>
</svg>