<?xml version="1.0" encoding="utf-8"?>
<svg version="1.1" xmlns:xlink="http://www.w3.org/1999/xlink" width="25px" height="25px" xmlns="http://www.w3.org/2000/svg">
  <g transform="matrix(1 0 0 1 -560 -114 )">
    <path d="M 572.5 114  C 579.5 114  585 119.5  585 126.5  C 585 133.5  579.5 139  572.5 139  C 565.5 139  560 133.5  560 126.5  C 560 119.5  565.5 114  572.5 114  Z " fill-rule="nonzero" fill="#ffffff" stroke="none" />
    <path d="M 572.5 114.5  C 579.22 114.5  584.5 119.78  584.5 126.5  C 584.5 133.22  579.22 138.5  572.5 138.5  C 565.78 138.5  560.5 133.22  560.5 126.5  C 560.5 119.78  565.78 114.5  572.5 114.5  Z " stroke-width="1" stroke="#797979" fill="none" />
  </g>
</svg>