<?xml version="1.0" encoding="utf-8"?>
<svg version="1.1" xmlns:xlink="http://www.w3.org/1999/xlink" width="5px" height="5px" xmlns="http://www.w3.org/2000/svg">
  <g transform="matrix(1 0 0 1 -545 -304 )">
    <path d="M 547.5 304  C 548.9 304  550 305.1  550 306.5  C 550 307.9  548.9 309  547.5 309  C 546.1 309  545 307.9  545 306.5  C 545 305.1  546.1 304  547.5 304  Z " fill-rule="nonzero" fill="#7f7f7f" stroke="none" />
    <path d="M 547.5 304.5  C 548.62 304.5  549.5 305.38  549.5 306.5  C 549.5 307.62  548.62 308.5  547.5 308.5  C 546.38 308.5  545.5 307.62  545.5 306.5  C 545.5 305.38  546.38 304.5  547.5 304.5  Z " stroke-width="1" stroke="#797979" fill="none" />
  </g>
</svg>